# ProBuilder 5.1.1
# https://unity3d.com/unity/features/worldbuilding/probuilder
# 16/01/2024 11:36:41

mtllib ./Arch.mtl
o Arch

g Arch
v 6 7.152557E-07 6
v 5.9 7.152557E-07 6
v 6 7.152557E-07 10
v 5.9 7.152557E-07 10
v 5.522542 3.708204 10
v 5.522542 3.708204 6
v 5.441641 3.6464 10
v 5.441641 3.6464 6
v 4.272542 6 10
v 4.272542 6 6
v 4.241641 5.9 10
v 4.241641 5.9 6
v 2.727458 6 10
v 2.727458 6 6
v 2.758359 5.9 10
v 2.758359 5.9 6
v 1.477457 3.708203 10
v 1.477457 3.708203 6
v 1.558359 3.6464 10
v 1.558359 3.6464 6
v 1 0 10
v 1 0 6
v 1.1 0 10
v 1.1 0 6

vt 5 -4
vt 4.9 -4
vt 5 0
vt 4.9 0
vt 0 -0.6385138
vt 0 3.100301
vt 4 -0.6385138
vt 4 3.100301
vt 0 3.063966
vt 0 -0.6111291
vt -4 3.063966
vt -4 -0.6111291
vt 0 1.089923
vt 0 3.700446
vt 4 1.089923
vt 4 3.700446
vt 0 3.684142
vt 0 1.130966
vt -4 3.684142
vt -4 1.130966
vt -3.272542 0
vt -1.727458 0
vt -3.272542 -4
vt -1.727458 -4
vt 1.758359 0
vt 3.241641 0
vt 1.758359 -4
vt 3.241641 -4
vt 0 6.094603
vt 0 3.484079
vt -4 6.094603
vt -4 3.484079
vt 0 3.48098
vt 0 6.034156
vt 4 3.48098
vt 4 6.034156
vt 0 3.738815
vt 0 0
vt -4 3.738815
vt -4 0
vt 0 0.01247202
vt 0 3.687567
vt 4 0.01247202
vt 4 3.687567
vt 0.0999999 -4
vt 0 -4
vt 0.0999999 0
vt -5 7.152557E-07
vt -4.522542 3.708204
vt -4.9 7.152557E-07
vt -4.441641 3.6464
vt 4.522542 3.708204
vt 4.441641 3.6464
vt -3.272542 6
vt -3.241641 5.9
vt 3.272542 6
vt 3.241641 5.9
vt -1.727458 6
vt -1.758359 5.9
vt 1.727458 6
vt 1.758359 5.9
vt -0.4774573 3.708203
vt -0.558359 3.6464
vt 0.4774573 3.708203
vt 0.558359 3.6464
vt -0.0999999 0

vn 0 -1 0
vn 0.9918125 0.1277029 0
vn 0.9512021 0.3085685 0
vn -0.9531931 -0.3023623 0
vn -0.992192 -0.1247204 0
vn 0.5104746 0.8598928 0
vn -0.5147802 -0.8573222 0
vn -0.5104746 0.8598928 0
vn 0.5147801 -0.8573222 0
vn -0.9512021 0.3085685 0
vn 0.8826649 -0.4700029 0
vn -0.9918125 0.1277028 0
vn 0.992192 -0.1247203 0
vn 0 0 -1
vn 0 0 1

usemtl ProBuilderDefault
f 3/3/1 4/4/1 2/2/1 1/1/1
f 1/7/2 6/8/3 5/6/3 3/5/2
f 8/11/4 2/12/5 4/10/5 7/9/4
f 6/15/3 10/16/6 9/14/6 5/13/3
f 12/19/7 8/20/4 7/18/4 11/17/7
f 10/23/6 14/24/8 13/22/8 9/21/6
f 16/27/9 12/28/7 11/26/7 15/25/9
f 14/31/8 18/32/10 17/30/10 13/29/8
f 20/35/11 16/36/9 15/34/9 19/33/11
f 18/39/10 22/40/12 21/38/12 17/37/10
f 24/43/13 20/44/13 19/42/13 23/41/13
f 23/47/1 21/38/1 22/46/1 24/45/1
f 2/50/14 8/51/14 6/49/14 1/48/14
f 7/53/15 4/4/15 3/3/15 5/52/15
f 8/51/14 12/55/14 10/54/14 6/49/14
f 11/57/15 7/53/15 5/52/15 9/56/15
f 12/55/14 16/59/14 14/58/14 10/54/14
f 15/61/15 11/57/15 9/56/15 13/60/15
f 16/59/14 20/63/14 18/62/14 14/58/14
f 19/65/15 15/61/15 13/60/15 17/64/15
f 20/63/14 24/66/14 22/38/14 18/62/14
f 23/47/15 19/65/15 17/64/15 21/38/15

